<svg width="1019" height="588" viewBox="0 0 1019 588" fill="none" xmlns="http://www.w3.org/2000/svg">
<path d="M848.528 378.821L701.45 293.913L848.528 209.005C854.751 205.413 854.751 199.534 848.528 195.942L520.431 6.5314C514.208 2.93913 504.026 2.93913 497.803 6.5314L169.706 195.942C163.483 199.534 163.483 205.413 169.706 209.005L316.784 293.913L169.706 378.821C163.483 382.414 163.483 388.292 169.706 391.884L497.803 581.295C504.026 584.887 514.208 584.887 520.431 581.295L848.528 391.884C854.751 388.292 854.751 382.414 848.528 378.821ZM497.803 189.411L364.867 266.155L254.558 202.474L509.117 55.5169L763.675 202.474L653.367 266.155L520.431 189.411C514.208 185.818 504.026 185.818 497.803 189.411ZM605.283 293.913L509.117 349.43L412.95 293.913L509.117 238.396L605.283 293.913ZM509.117 532.309L254.558 385.353L364.867 321.672L497.803 398.416C504.026 402.008 514.208 402.008 520.431 398.416L653.367 321.672L763.675 385.353L509.117 532.309Z" fill="#FA7500"/>
</svg>
