<svg width="84" height="84" viewBox="0 0 84 84" fill="none" xmlns="http://www.w3.org/2000/svg">
<path d="M81.167 39.3429H50.898L48.303 34.5219C47.954 33.8739 47.279 33.4699 46.542 33.4699H43.563C43.823 28.6269 47.11 25.5289 52.099 25.5289C59.378 25.5289 64.497 20.5259 64.658 13.3179C64.661 13.2759 64.662 13.2349 64.662 13.1919V12.9669C64.662 12.9249 64.661 12.8829 64.658 12.8409C64.498 5.63191 59.379 0.628906 52.1 0.628906C45.045 0.628906 40.119 5.55591 40.119 12.6099C40.119 17.4259 37.028 20.5489 32.236 20.5909C27.507 20.5489 24.458 17.4669 24.458 12.7149V2.62891C24.458 1.52491 23.562 0.628906 22.458 0.628906C21.354 0.628906 20.458 1.52491 20.458 2.62891V12.7159C20.458 19.6039 25.196 24.4459 32.022 24.5889C32.06 24.5909 32.098 24.5919 32.137 24.5919H32.334C32.372 24.5919 32.411 24.5909 32.448 24.5889C39.336 24.4459 44.118 19.5609 44.118 12.6099C44.118 7.76091 47.251 4.62891 52.099 4.62891C57.263 4.62891 60.613 7.94191 60.661 13.0789C60.613 18.2159 57.264 21.5289 52.099 21.5289C44.914 21.5289 39.849 26.4109 39.565 33.4699H37.457C36.721 33.4699 36.045 33.8739 35.696 34.5219L33.101 39.3429H2.83301C1.72901 39.3429 0.833008 40.2389 0.833008 41.3429V81.3709C0.833008 82.4749 1.72901 83.3709 2.83301 83.3709H81.167C82.271 83.3709 83.167 82.4749 83.167 81.3709V41.3429C83.167 40.2379 82.271 39.3429 81.167 39.3429ZM38.651 37.4699H45.348L46.356 39.3429H37.643L38.651 37.4699ZM79.167 79.3709H4.83301V43.3429H34.296H49.704H79.167V79.3709Z" fill="#D6002B"/>
<path d="M32.811 55.7617H28.563V51.5137C28.563 50.4097 27.667 49.5137 26.563 49.5137H19.374C18.27 49.5137 17.374 50.4097 17.374 51.5137V55.7617H13.127C12.023 55.7617 11.127 56.6577 11.127 57.7617V64.9507C11.127 66.0547 12.023 66.9507 13.127 66.9507H17.374V71.1987C17.374 72.3027 18.27 73.1987 19.374 73.1987H26.563C27.667 73.1987 28.563 72.3027 28.563 71.1987V66.9507H32.811C33.915 66.9507 34.811 66.0547 34.811 64.9507V57.7617C34.811 56.6577 33.915 55.7617 32.811 55.7617ZM30.811 62.9507H26.563C25.459 62.9507 24.563 63.8467 24.563 64.9507V69.1987H21.374V64.9507C21.374 63.8467 20.478 62.9507 19.374 62.9507H15.127V59.7617H19.374C20.478 59.7617 21.374 58.8657 21.374 57.7617V53.5137H24.563V57.7617C24.563 58.8657 25.459 59.7617 26.563 59.7617H30.811V62.9507Z" fill="#D6002B"/>
<path d="M65.883 62.1656C69.737 62.1656 72.874 59.0286 72.874 55.1736C72.874 51.3186 69.737 48.1816 65.883 48.1816C62.028 48.1816 58.891 51.3176 58.891 55.1736C58.891 59.0296 62.027 62.1656 65.883 62.1656ZM65.883 52.1816C67.532 52.1816 68.874 53.5236 68.874 55.1736C68.874 56.8236 67.532 58.1656 65.883 58.1656C64.234 58.1656 62.891 56.8236 62.891 55.1736C62.891 53.5236 64.233 52.1816 65.883 52.1816Z" fill="#D6002B"/>
<path d="M46.708 67.5408C46.708 71.3958 49.845 74.5328 53.7 74.5328C57.555 74.5328 60.692 71.3968 60.692 67.5408C60.692 63.6848 57.555 60.5488 53.7 60.5488C49.845 60.5488 46.708 63.6848 46.708 67.5408ZM53.7 64.5478C55.349 64.5478 56.692 65.8898 56.692 67.5398C56.692 69.1888 55.349 70.5318 53.7 70.5318C52.051 70.5318 50.708 69.1898 50.708 67.5398C50.708 65.8908 52.051 64.5478 53.7 64.5478Z" fill="#D6002B"/>
</svg>
