<svg width="89" height="84" viewBox="0 0 89 84" fill="none" xmlns="http://www.w3.org/2000/svg">
<path d="M69.606 35.2165C69.907 34.8445 70.04 34.3845 70.032 33.9235C70.046 33.4735 69.928 33.0235 69.646 32.6515L59.455 19.2205C59.076 18.7225 58.487 18.4295 57.861 18.4295H57.309C57.153 18.4115 56.996 18.4115 56.84 18.4295H30.905C30.749 18.4115 30.592 18.4115 30.436 18.4295H30.015C29.374 18.4295 28.772 18.7365 28.396 19.2555L18.66 32.6865C18.623 32.7375 18.604 32.7965 18.573 32.8505C18.543 32.9005 18.502 32.9415 18.477 32.9945C18.463 33.0235 18.461 33.0555 18.448 33.0855C18.409 33.1775 18.383 33.2715 18.359 33.3675C18.337 33.4515 18.315 33.5335 18.304 33.6195C18.293 33.7145 18.295 33.8075 18.297 33.9025C18.299 33.9915 18.299 34.0785 18.313 34.1655C18.327 34.2565 18.355 34.3435 18.382 34.4325C18.409 34.5215 18.433 34.6095 18.473 34.6945C18.484 34.7185 18.486 34.7445 18.498 34.7685C18.53 34.8315 18.58 34.8815 18.618 34.9405C18.655 34.9975 18.678 35.0605 18.721 35.1135L42.565 64.7555C42.57 64.7625 42.577 64.7665 42.583 64.7735C42.599 64.7925 42.617 64.8075 42.633 64.8255C42.657 64.8525 42.678 64.8825 42.704 64.9095C42.738 64.9435 42.778 64.9715 42.815 65.0035C42.854 65.0375 42.893 65.0725 42.934 65.1025C42.957 65.1195 42.977 65.1405 43.001 65.1565C43.008 65.1615 43.015 65.1645 43.022 65.1685C43.037 65.1785 43.053 65.1845 43.068 65.1935C43.1 65.2135 43.135 65.2295 43.168 65.2475C43.211 65.2715 43.252 65.2975 43.297 65.3175C43.36 65.3455 43.425 65.3665 43.49 65.3885C43.529 65.4015 43.566 65.4145 43.605 65.4255C43.636 65.4335 43.664 65.4455 43.695 65.4525C43.706 65.4545 43.716 65.4585 43.728 65.4615C43.86 65.4885 43.992 65.5015 44.123 65.5015H44.124H44.125C44.256 65.5015 44.388 65.4875 44.52 65.4615C44.53 65.4595 44.54 65.4555 44.551 65.4535C44.582 65.4465 44.611 65.4345 44.642 65.4255C44.682 65.4145 44.719 65.4015 44.758 65.3885C44.822 65.3665 44.887 65.3465 44.948 65.3185C44.993 65.2975 45.035 65.2715 45.079 65.2475C45.113 65.2295 45.148 65.2125 45.181 65.1925C45.196 65.1835 45.212 65.1775 45.227 65.1675C45.234 65.1635 45.241 65.1595 45.248 65.1555C45.271 65.1405 45.289 65.1205 45.311 65.1045C45.354 65.0735 45.393 65.0375 45.433 65.0025C45.47 64.9705 45.51 64.9425 45.545 64.9075C45.571 64.8815 45.591 64.8515 45.616 64.8235C45.631 64.8065 45.649 64.7925 45.664 64.7745C45.669 64.7685 45.675 64.7645 45.68 64.7585L69.606 35.2165ZM53.535 35.9285L46.124 53.5745V35.9135L53.535 35.9285ZM42.124 35.9055V53.5755L34.697 35.8905L42.124 35.9055ZM57.869 35.9375L63.865 35.9495L51.401 51.3395L57.869 35.9375ZM64.023 31.8605H56.576C56.57 31.8605 56.564 31.8605 56.557 31.8605H48.448L57.304 23.0055L64.023 31.8605ZM43.873 30.7815L35.522 22.4295H52.225L43.873 30.7815ZM30.543 23.1075L39.295 31.8605H31.685C31.682 31.8605 31.678 31.8605 31.675 31.8605H24.197L30.543 23.1075ZM30.355 35.8815L36.782 51.1865L24.461 35.8695L30.355 35.8815Z" fill="#FF6813"/>
<path d="M43.6211 13.151C44.7251 13.151 45.6211 12.255 45.6211 11.151V2C45.6211 0.896 44.7251 0 43.6211 0C42.5171 0 41.6211 0.896 41.6211 2V11.151C41.6211 12.256 42.5171 13.151 43.6211 13.151Z" fill="#FF6813"/>
<path d="M43.6211 70.7598C42.5171 70.7598 41.6211 71.6558 41.6211 72.7598V81.9108C41.6211 83.0148 42.5171 83.9108 43.6211 83.9108C44.7251 83.9108 45.6211 83.0148 45.6211 81.9108V72.7598C45.6211 71.6548 44.7261 70.7598 43.6211 70.7598Z" fill="#FF6813"/>
<path d="M19.3629 15.9805C19.7539 16.3715 20.2649 16.5665 20.7769 16.5665C21.2889 16.5665 21.7999 16.3715 22.1909 15.9805C22.9719 15.1995 22.9719 13.9335 22.1909 13.1525L15.7199 6.68145C14.9389 5.90045 13.6729 5.90045 12.8919 6.68145C12.1109 7.46245 12.1109 8.72845 12.8919 9.50945L19.3629 15.9805Z" fill="#FF6813"/>
<path d="M13.15 37.0137C13.15 35.9097 12.254 35.0137 11.15 35.0137H2C0.896 35.0137 0 35.9097 0 37.0137C0 38.1177 0.896 39.0137 2 39.0137H11.15C12.255 39.0137 13.15 38.1177 13.15 37.0137Z" fill="#FF6813"/>
<path d="M18.8019 58.2799L12.3309 64.7509C11.5499 65.5319 11.5499 66.7979 12.3309 67.5789C12.7219 67.9699 13.2329 68.1649 13.7449 68.1649C14.2569 68.1649 14.7679 67.9699 15.1589 67.5789L21.6299 61.1079C22.4109 60.3269 22.4109 59.0609 21.6299 58.2799C20.8489 57.4979 19.5829 57.4979 18.8019 58.2799Z" fill="#FF6813"/>
<path d="M67.5531 16.5665C68.0651 16.5665 68.5761 16.3715 68.9671 15.9805L75.4381 9.50945C76.2191 8.72845 76.2191 7.46245 75.4381 6.68145C74.6571 5.90045 73.3911 5.90045 72.6101 6.68145L66.1391 13.1525C65.3581 13.9335 65.3581 15.1995 66.1391 15.9805C66.5291 16.3715 67.0411 16.5665 67.5531 16.5665Z" fill="#FF6813"/>
<path d="M86.3301 35.0137H77.1801C76.0761 35.0137 75.1801 35.9097 75.1801 37.0137C75.1801 38.1177 76.0761 39.0137 77.1801 39.0137H86.3301C87.4341 39.0137 88.3301 38.1177 88.3301 37.0137C88.3301 35.9097 87.4351 35.0137 86.3301 35.0137Z" fill="#FF6813"/>
<path d="M69.528 58.2791C68.747 57.4981 67.481 57.4981 66.7 58.2791C65.919 59.0601 65.919 60.3261 66.7 61.1071L73.171 67.5781C73.562 67.9691 74.073 68.1641 74.585 68.1641C75.097 68.1641 75.608 67.9691 75.999 67.5781C76.78 66.7971 76.78 65.5311 75.999 64.7501L69.528 58.2791Z" fill="#FF6813"/>
</svg>
