<svg width="91" height="76" viewBox="0 0 91 76" fill="none" xmlns="http://www.w3.org/2000/svg">
<path d="M17.3008 29.1879C23.5508 22.9399 33.7138 22.9419 39.9598 29.1879C40.3608 29.5899 40.8888 29.7909 41.4158 29.7909C41.9428 29.7909 42.4708 29.5899 42.8718 29.1879C43.6768 28.3829 43.6768 27.0789 42.8718 26.2749C35.0218 18.4219 22.2418 18.4209 14.3888 26.2749C13.5838 27.0789 13.5838 28.3829 14.3888 29.1879C15.1918 29.9929 16.4988 29.9929 17.3008 29.1879Z" fill="#880088"/>
<path d="M40.4099 51.051C34.1619 57.298 23.9979 57.298 17.7499 51.051C16.9469 50.246 15.6409 50.246 14.8379 51.051C14.0329 51.856 14.0329 53.16 14.8379 53.964C18.7639 57.891 23.9219 59.854 29.0799 59.854C34.2379 59.854 39.3959 57.891 43.3219 53.964C44.1269 53.16 44.1269 51.856 43.3219 51.051C42.5189 50.246 41.2119 50.246 40.4099 51.051Z" fill="#880088"/>
<path d="M36.7408 40.1194C36.7408 35.7714 33.2038 32.2344 28.8548 32.2344C24.5068 32.2344 20.9698 35.7714 20.9698 40.1194C20.9698 44.4674 24.5068 48.0044 28.8548 48.0044C33.2038 48.0044 36.7408 44.4674 36.7408 40.1194ZM24.9698 40.1194C24.9698 37.9764 26.7128 36.2344 28.8548 36.2344C30.9978 36.2344 32.7408 37.9774 32.7408 40.1194C32.7408 42.2614 30.9978 44.0044 28.8548 44.0044C26.7128 44.0044 24.9698 42.2624 24.9698 40.1194Z" fill="#880088"/>
<path d="M76.9059 5.21683V2.10883C76.9059 0.970829 75.9839 0.0488281 74.8459 0.0488281H69.5629C68.4249 0.0488281 67.5029 0.970829 67.5029 2.10883V5.20883H22.1999C14.3459 5.20883 7.95688 11.5988 7.95688 19.4528V20.7288C3.22688 25.8218 0.327881 32.6368 0.327881 40.1198C0.327881 47.6028 3.22688 54.4178 7.95688 59.5108V60.7868C7.95688 68.6408 14.3469 75.0308 22.1999 75.0308H76.7419C84.5959 75.0308 90.9849 68.6408 90.9849 60.7868V19.4528C90.9849 11.6538 84.6829 5.30583 76.9059 5.21683ZM70.4059 43.7338L73.7969 47.1248L63.7879 57.1318L60.3979 53.7418L70.4059 43.7338ZM72.7869 4.16883V40.2888L71.8619 39.3638C71.7889 39.2908 71.7059 39.2308 71.6229 39.1708V4.16883H72.7869ZM28.8549 15.7118C42.3139 15.7118 53.2639 26.6608 53.2639 40.1198C53.2639 53.5788 42.3139 64.5278 28.8549 64.5278C15.3959 64.5278 4.44688 53.5788 4.44688 40.1198C4.44688 26.6608 15.3959 15.7118 28.8549 15.7118ZM86.8659 60.7868C86.8659 66.3698 82.3239 70.9118 76.7419 70.9118H22.1999C17.5329 70.9118 13.6039 67.7318 12.4379 63.4278C17.0839 66.7108 22.7459 68.6468 28.8559 68.6468C44.5859 68.6468 57.3839 55.8498 57.3839 40.1188C57.3839 24.3878 44.5849 11.5918 28.8549 11.5918C22.7459 11.5918 17.0839 13.5288 12.4369 16.8108C13.6029 12.5068 17.5319 9.32683 22.1989 9.32683H67.5029V40.8098L56.0289 52.2858C55.2239 53.0908 55.2239 54.3938 56.0279 55.1988L62.3309 61.5018C62.7179 61.8878 63.2419 62.1048 63.7879 62.1048C64.3339 62.1048 64.8579 61.8878 65.2439 61.5018L78.1659 48.5808C78.5529 48.1948 78.7699 47.6708 78.7699 47.1238C78.7699 46.5768 78.5529 46.0538 78.1659 45.6668L76.9059 44.4068V9.33583C82.4119 9.42483 86.8659 13.9248 86.8659 19.4518V60.7868V60.7868Z" fill="#880088"/>
<path d="M77.9179 55.7441C75.0889 55.7441 72.7869 58.0461 72.7869 60.8751C72.7869 63.7041 75.0889 66.0061 77.9179 66.0061C80.7469 66.0061 83.0489 63.7041 83.0489 60.8751C83.0489 58.0461 80.7469 55.7441 77.9179 55.7441ZM77.9179 61.8871C77.3599 61.8871 76.9059 61.4331 76.9059 60.8751C76.9059 60.3171 77.3599 59.8631 77.9179 59.8631C78.4759 59.8631 78.9299 60.3171 78.9299 60.8751C78.9299 61.4331 78.4749 61.8871 77.9179 61.8871Z" fill="#880088"/>
</svg>
