<svg width="727" height="212" viewBox="0 0 727 212" fill="none" xmlns="http://www.w3.org/2000/svg">
<g clip-path="url(#clip0)">
<rect width="727" height="212" fill="#20214F"/>
<path opacity="0.75" fill-rule="evenodd" clip-rule="evenodd" d="M-13.7817 212.064L24.41 147.902C62.6018 83.7395 138.985 -44.5849 215.369 -90.415C291.753 -136.245 368.136 -99.581 444.52 -62.9169C520.903 -26.2528 597.287 10.4113 673.67 28.7434C750.054 47.0754 826.437 47.0754 902.821 -17.0868C979.205 -81.249 1055.59 -209.573 1131.97 -237.071C1208.36 -264.57 1284.74 -191.241 1361.12 -136.245C1437.51 -81.249 1513.89 -44.5849 1590.27 -26.2528C1666.66 -7.92074 1743.04 -7.92074 1781.23 -7.92074H1819.42V212.064H1781.23C1743.04 212.064 1666.66 212.064 1590.27 212.064C1513.89 212.064 1437.51 212.064 1361.12 212.064C1284.74 212.064 1208.36 212.064 1131.97 212.064C1055.59 212.064 979.205 212.064 902.821 212.064C826.437 212.064 750.054 212.064 673.67 212.064C597.287 212.064 520.903 212.064 444.52 212.064C368.136 212.064 291.753 212.064 215.369 212.064C138.985 212.064 62.6018 212.064 24.41 212.064H-13.7817Z" fill="#0099FF"/>
<path fill-rule="evenodd" clip-rule="evenodd" d="M-26.6035 104L16.3965 122C59.3965 140 144.396 176 230.396 113C316.396 49.9999 402.396 -112 487.396 -121C573.396 -130 659.396 13.9999 744.396 49.9999C830.396 85.9999 916.396 13.9999 1002.4 13.9999C1087.4 13.9999 1173.4 85.9999 1259.4 40.9999C1344.4 -4.00009 1430.4 -166 1516.4 -220C1602.4 -274 1687.4 -220 1730.4 -193L1773.4 -166V212H1730.4C1687.4 212 1602.4 212 1516.4 212C1430.4 212 1344.4 212 1259.4 212C1173.4 212 1087.4 212 1002.4 212C916.396 212 830.396 212 744.396 212C659.396 212 573.396 212 487.396 212C402.396 212 316.396 212 230.396 212C144.396 212 59.3965 212 16.3965 212H-26.6035V104Z" fill="#13D3FA"/>
</g>
<defs>
<clipPath id="clip0">
<rect width="727" height="212" fill="white"/>
</clipPath>
</defs>
</svg>
