<svg width="212" height="182" viewBox="0 0 212 182" fill="none" xmlns="http://www.w3.org/2000/svg">
<path d="M5.86707 181.081C3.60029 181.081 1.76301 180.777 0.355225 180.168V175.24C2.00162 175.727 3.62415 175.97 5.22283 175.97C7.08397 175.97 8.44403 175.447 9.30302 174.4C10.1859 173.378 10.6273 171.808 10.6273 169.691V123.109H16.5686V169.253C16.5686 177.138 13.0014 181.081 5.86707 181.081ZM10.1262 112.267C10.1262 110.879 10.4603 109.869 11.1284 109.237C11.7965 108.58 12.6316 108.251 13.6338 108.251C14.5882 108.251 15.4114 108.58 16.1034 109.237C16.7953 109.894 17.1413 110.904 17.1413 112.267C17.1413 113.63 16.7953 114.652 16.1034 115.333C15.4114 115.99 14.5882 116.319 13.6338 116.319C12.6316 116.319 11.7965 115.99 11.1284 115.333C10.4603 114.652 10.1262 113.63 10.1262 112.267Z" fill="#FF6813"/>
<path d="M34.7506 123.109V149.065C34.7506 152.326 35.4783 154.76 36.9338 156.366C38.3893 157.973 40.668 158.776 43.7699 158.776C47.874 158.776 50.8685 157.632 52.7535 155.344C54.6624 153.056 55.6168 149.321 55.6168 144.137V123.109H61.5582V163.12H56.6548L55.7958 157.754H55.4737C54.2568 159.725 52.5626 161.234 50.3913 162.28C48.2438 163.327 45.7862 163.85 43.0183 163.85C38.2462 163.85 34.6671 162.694 32.281 160.382C29.9188 158.07 28.7376 154.371 28.7376 149.284V123.109H34.7506Z" fill="#FF6813"/>
<path d="M101.036 163.12V137.237C101.036 133.976 100.308 131.542 98.8526 129.936C97.3971 128.329 95.1184 127.526 92.0165 127.526C87.9124 127.526 84.906 128.658 82.9971 130.921C81.0882 133.185 80.1338 136.921 80.1338 142.129V163.12H74.1925V123.109H79.0243L79.9906 128.585H80.277C81.4939 126.614 83.1999 125.093 85.3951 124.022C87.5903 122.927 90.036 122.379 92.7323 122.379C97.4567 122.379 101.012 123.547 103.398 125.884C105.784 128.196 106.977 131.907 106.977 137.018V163.12H101.036Z" fill="#FF6813"/>
<path d="M125.159 163.12H119.218V123.109H125.159V163.12Z" fill="#FF6813"/>
<path d="M156.011 163.85C153.458 163.85 151.12 163.376 148.996 162.426C146.896 161.453 145.131 159.968 143.699 157.973H143.269C143.556 160.309 143.699 162.524 143.699 164.617V181.081H137.758V123.109H142.589L143.413 128.585H143.699C145.226 126.395 147.004 124.813 149.032 123.839C151.06 122.866 153.386 122.379 156.011 122.379C161.213 122.379 165.221 124.192 168.037 127.818C170.876 131.445 172.296 136.531 172.296 143.078C172.296 149.649 170.853 154.76 167.965 158.411C165.102 162.037 161.117 163.85 156.011 163.85ZM155.152 127.526C151.144 127.526 148.244 128.658 146.455 130.921C144.665 133.185 143.747 136.787 143.699 141.727V143.078C143.699 148.7 144.618 152.728 146.455 155.162C148.292 157.571 151.239 158.776 155.295 158.776C158.684 158.776 161.332 157.376 163.241 154.577C165.174 151.779 166.14 147.921 166.14 143.005C166.14 138.016 165.174 134.195 163.241 131.542C161.332 128.865 158.636 127.526 155.152 127.526Z" fill="#FF6813"/>
<path d="M206.835 163.12L205.654 157.425H205.367C203.411 159.932 201.454 161.635 199.497 162.536C197.565 163.412 195.143 163.85 192.232 163.85C188.343 163.85 185.288 162.828 183.069 160.784C180.874 158.739 179.776 155.831 179.776 152.059C179.776 143.978 186.112 139.744 198.782 139.354L205.439 139.135V136.653C205.439 133.513 204.771 131.201 203.434 129.717C202.122 128.208 200.01 127.453 197.099 127.453C193.831 127.453 190.132 128.475 186.004 130.52L184.179 125.884C186.112 124.813 188.223 123.973 190.514 123.365C192.828 122.756 195.143 122.452 197.457 122.452C202.134 122.452 205.594 123.511 207.837 125.628C210.104 127.745 211.237 131.14 211.237 135.813V163.12H206.835ZM193.413 158.849C197.111 158.849 200.01 157.814 202.11 155.746C204.234 153.677 205.296 150.781 205.296 147.057V143.443L199.354 143.699C194.63 143.869 191.218 144.623 189.118 145.962C187.042 147.276 186.004 149.333 186.004 152.132C186.004 154.322 186.648 155.989 187.937 157.133C189.249 158.277 191.075 158.849 193.413 158.849Z" fill="#FF6813"/>
<path d="M61.5245 56.9658C65.8981 61.3678 73.0117 61.3678 77.3853 56.9658C78.7533 55.589 79.693 53.9434 80.2059 52.1954L106.189 52.1954C106.585 55.4014 107.989 58.501 110.429 60.9567C112.869 63.4124 115.948 64.8252 119.134 65.227V85.6311C117.882 85.9543 116.694 86.5782 115.716 87.5626C112.8 90.4973 112.8 95.2704 115.716 98.205C118.631 101.14 123.374 101.14 126.29 98.205C129.205 95.2704 129.205 90.4973 126.29 87.5626C125.311 86.5782 124.123 85.9543 122.871 85.6311V65.227C126.057 64.8252 129.137 63.4124 131.576 60.9567C134.016 58.501 135.42 55.4014 135.818 52.1967L169.296 52.1954C169.427 54.8999 170.503 57.5658 172.55 59.6264C176.924 64.0284 184.037 64.0283 188.411 59.6264C192.785 55.2244 192.785 48.0648 188.411 43.6628C184.037 39.2609 176.924 39.2609 172.55 43.6628C171.182 45.0397 170.242 46.6853 169.73 48.4333L135.817 48.4333C135.491 45.8179 134.49 43.2771 132.804 41.094L146.233 27.5782C150.609 30.7111 156.73 30.316 160.653 26.3676C165.027 21.9657 165.027 14.806 160.653 10.4041C156.28 6.00213 149.166 6.00213 144.792 10.4041C140.871 14.3511 140.478 20.5117 143.59 24.9176L130.161 38.4334C127.992 36.7373 125.467 35.7289 122.869 35.4017L122.869 14.9976C124.123 14.6743 125.311 14.0504 126.29 13.066C129.205 10.1314 129.205 5.35825 126.29 2.42362C123.374 -0.511018 118.631 -0.510987 115.716 2.42365C112.8 5.35828 112.8 10.1314 115.716 13.066C116.694 14.0504 117.882 14.6743 119.134 14.9976V35.4017C115.948 35.8034 112.869 37.2162 110.429 39.672C107.989 42.1277 106.585 45.2273 106.187 48.432H80.6381C80.5086 45.7288 79.4327 43.0629 77.3853 41.0022C73.0117 36.6003 65.8981 36.6003 61.5245 41.0022C57.1509 45.4042 57.1509 52.5639 61.5245 56.9658ZM123.646 95.5444C122.188 97.0117 119.817 97.0117 118.359 95.5444C116.901 94.0771 116.901 91.6906 118.359 90.2232C119.817 88.7559 122.188 88.7559 123.646 90.2232C125.104 91.6906 125.104 94.0771 123.646 95.5444ZM185.768 46.3234C188.683 49.2581 188.683 54.0312 185.768 56.9658C182.852 59.9004 178.109 59.9005 175.194 56.9658C172.278 54.0312 172.278 49.2581 175.194 46.3234C178.109 43.3888 182.852 43.3888 185.768 46.3234ZM147.437 13.066C150.353 10.1314 155.095 10.1314 158.011 13.066C160.927 16.0007 160.927 20.7738 158.011 23.7084C155.095 26.643 150.353 26.643 147.437 23.7084C144.522 20.7738 144.522 16.0007 147.437 13.066ZM128.933 42.3325C133.307 46.7345 133.307 53.8942 128.933 58.2961C124.559 62.6981 117.446 62.6981 113.072 58.2961C108.699 53.8942 108.699 46.7345 113.072 42.3325C117.446 37.9306 124.559 37.9306 128.933 42.3325ZM74.7418 43.6628C77.6576 46.5975 77.6576 51.3706 74.7418 54.3052C71.8261 57.2398 67.0837 57.2399 64.168 54.3052C61.2522 51.3706 61.2522 46.5975 64.168 43.6628C67.0837 40.7282 71.8261 40.7282 74.7418 43.6628Z" fill="#FF6813"/>
</svg>
