<svg width="573" height="100" viewBox="0 0 573 100" fill="none" xmlns="http://www.w3.org/2000/svg">
<path d="M15.3974 55.2451C18.8687 58.7164 24.5146 58.7164 27.9858 55.2451C29.0716 54.1594 29.8174 52.8617 30.2245 51.4833L50.8464 51.4833C51.1611 54.0115 52.2752 56.4557 54.2117 58.3922C56.1483 60.3288 58.5925 61.4429 61.1207 61.7597V77.8498C60.1272 78.1047 59.1842 78.5967 58.4079 79.373C56.0937 81.6872 56.0937 85.4511 58.4079 87.7653C60.722 90.0794 64.486 90.0794 66.8002 87.7653C69.1143 85.4511 69.1143 81.6872 66.8002 79.373C66.0239 78.5967 65.0808 78.1047 64.0873 77.8498V61.7597C66.6155 61.4429 69.0598 60.3288 70.9963 58.3922C72.9328 56.4557 74.0469 54.0115 74.3627 51.4843L100.934 51.4833C101.038 53.616 101.891 55.7183 103.516 57.3432C106.988 60.8145 112.634 60.8145 116.105 57.3432C119.576 53.8719 119.576 48.226 116.105 44.7548C112.634 41.2835 106.988 41.2835 103.516 44.7548C102.431 45.8405 101.685 47.1382 101.278 48.5166L74.3616 48.5166C74.1036 46.4542 73.3084 44.4506 71.9709 42.7291L82.6291 32.0709C86.1024 34.5414 90.9605 34.2298 94.074 31.1162C97.5453 27.645 97.5453 21.9991 94.0741 18.5278C90.6028 15.0566 84.9569 15.0566 81.4856 18.5278C78.3731 21.6403 78.0616 26.4984 80.531 29.9728L69.8728 40.631C68.1513 39.2935 66.1477 38.4983 64.0853 38.2403L64.0852 22.1501C65.0808 21.8952 66.0239 21.4032 66.8002 20.627C69.1143 18.3128 69.1143 14.5488 66.8002 12.2346C64.486 9.92047 60.722 9.92049 58.4079 12.2347C56.0937 14.5488 56.0937 18.3128 58.4079 20.627C59.1841 21.4032 60.1272 21.8952 61.1207 22.1501V38.2403C58.5925 38.5571 56.1482 39.6712 54.2117 41.6077C52.2752 43.5442 51.1611 45.9884 50.8454 48.5156H30.5675C30.4647 46.3839 29.6108 44.2817 27.9858 42.6567C24.5146 39.1854 18.8686 39.1854 15.3974 42.6567C11.9261 46.128 11.9261 51.7739 15.3974 55.2451ZM64.7021 85.6672C63.545 86.8243 61.663 86.8243 60.5059 85.6672C59.3489 84.5101 59.3489 82.6281 60.5059 81.471C61.663 80.314 63.545 80.314 64.7021 81.471C65.8592 82.6281 65.8592 84.5101 64.7021 85.6672ZM114.007 46.8529C116.321 49.167 116.321 52.931 114.007 55.2451C111.693 57.5593 107.929 57.5593 105.614 55.2451C103.3 52.931 103.3 49.167 105.614 46.8528C107.929 44.5387 111.693 44.5387 114.007 46.8529ZM83.5848 20.627C85.8989 18.3128 89.6629 18.3128 91.977 20.627C94.2912 22.9411 94.2912 26.7051 91.977 29.0192C89.6629 31.3334 85.8989 31.3334 83.5848 29.0192C81.2706 26.7051 81.2706 22.9411 83.5848 20.627ZM68.8982 43.7057C72.3695 47.177 72.3695 52.8229 68.8982 56.2942C65.427 59.7654 59.7811 59.7654 56.3098 56.2942C52.8385 52.8229 52.8385 47.177 56.3098 43.7057C59.7811 40.2345 65.427 40.2345 68.8982 43.7057ZM25.8878 44.7548C28.2019 47.0689 28.2019 50.8329 25.8878 53.1471C23.5736 55.4612 19.8096 55.4612 17.4955 53.1471C15.1813 50.8329 15.1813 47.069 17.4955 44.7548C19.8096 42.4406 23.5736 42.4406 25.8878 44.7548Z" fill="#FF4400"/>
<path d="M148.66 28.5645V79.249C148.66 87.9834 144.699 92.3506 136.776 92.3506C135.068 92.3506 133.487 92.0986 132.031 91.5947V85.3799C132.927 85.6038 134.103 85.7158 135.558 85.7158C137.294 85.7158 138.61 85.2399 139.506 84.2881C140.429 83.3643 140.891 81.7406 140.891 79.417V28.5645H148.66ZM140.094 16.5127C140.094 15.2809 140.471 14.2311 141.227 13.3633C142.011 12.4674 143.145 12.0195 144.629 12.0195C146.14 12.0195 147.288 12.4535 148.072 13.3213C148.856 14.1891 149.248 15.2529 149.248 16.5127C149.248 17.7725 148.856 18.8223 148.072 19.6621C147.288 20.502 146.14 20.9219 144.629 20.9219C143.117 20.9219 141.983 20.502 141.227 19.6621C140.471 18.8223 140.094 17.7725 140.094 16.5127ZM189.266 69.5068C186.243 73.0622 181.806 74.8398 175.955 74.8398C171.112 74.8398 167.416 73.4401 164.869 70.6406C162.349 67.8132 161.076 63.6419 161.048 58.127V28.5645H168.816V57.917C168.816 64.8037 171.616 68.2471 177.215 68.2471C183.149 68.2471 187.097 66.0355 189.056 61.6123V28.5645H196.825V74H189.434L189.266 69.5068ZM216.015 28.5645L216.267 34.2754C219.739 29.9082 224.274 27.7246 229.873 27.7246C239.475 27.7246 244.318 33.1416 244.402 43.9756V74H236.634V43.9336C236.606 40.6582 235.85 38.2367 234.366 36.6689C232.91 35.1012 230.629 34.3174 227.521 34.3174C225.002 34.3174 222.79 34.9893 220.886 36.333C218.983 37.6768 217.499 39.4404 216.435 41.624V74H208.667V28.5645H216.015ZM264.558 74H256.79V28.5645H264.558V74ZM256.16 16.5127C256.16 15.2529 256.538 14.1891 257.294 13.3213C258.078 12.4535 259.225 12.0195 260.737 12.0195C262.249 12.0195 263.397 12.4535 264.18 13.3213C264.964 14.1891 265.356 15.2529 265.356 16.5127C265.356 17.7725 264.964 18.8223 264.18 19.6621C263.397 20.502 262.249 20.9219 260.737 20.9219C259.225 20.9219 258.078 20.502 257.294 19.6621C256.538 18.8223 256.16 17.7725 256.16 16.5127ZM315.411 51.7861C315.411 58.7008 313.829 64.2718 310.666 68.499C307.502 72.7262 303.219 74.8398 297.816 74.8398C292.301 74.8398 287.962 73.0902 284.799 69.5908V91.4688H277.03V28.5645H284.127L284.505 33.6035C287.668 29.6842 292.063 27.7246 297.69 27.7246C303.149 27.7246 307.46 29.7822 310.624 33.8975C313.815 38.0127 315.411 43.7376 315.411 51.0723V51.7861ZM307.642 50.9043C307.642 45.7812 306.551 41.736 304.367 38.7686C302.183 35.8011 299.188 34.3174 295.381 34.3174C290.677 34.3174 287.15 36.403 284.799 40.5742V62.2842C287.122 66.4274 290.677 68.499 295.465 68.499C299.188 68.499 302.141 67.0293 304.325 64.0898C306.537 61.1224 307.642 56.7272 307.642 50.9043ZM353.372 74C352.924 73.1042 352.56 71.5085 352.28 69.2129C348.669 72.9642 344.358 74.8398 339.346 74.8398C334.867 74.8398 331.186 73.5801 328.302 71.0605C325.447 68.513 324.019 65.2936 324.019 61.4023C324.019 56.6712 325.811 53.0039 329.394 50.4004C333.006 47.7689 338.073 46.4531 344.595 46.4531H352.154V42.8838C352.154 40.1683 351.342 38.0127 349.719 36.417C348.095 34.7933 345.701 33.9814 342.538 33.9814C339.766 33.9814 337.443 34.6813 335.567 36.0811C333.691 37.4808 332.754 39.1745 332.754 41.1621H324.943C324.943 38.8945 325.741 36.7109 327.337 34.6113C328.96 32.4837 331.144 30.804 333.887 29.5723C336.659 28.3405 339.696 27.7246 343 27.7246C348.235 27.7246 352.336 29.0404 355.303 31.6719C358.271 34.2754 359.811 37.8727 359.923 42.4639V63.376C359.923 67.5472 360.455 70.8646 361.518 73.3281V74H353.372ZM340.48 68.0791C342.916 68.0791 345.225 67.4492 347.409 66.1895C349.593 64.9297 351.174 63.292 352.154 61.2764V51.9541H346.065C336.547 51.9541 331.788 54.7396 331.788 60.3105C331.788 62.7461 332.6 64.6497 334.223 66.0215C335.847 67.3932 337.933 68.0791 340.48 68.0791Z" fill="#253238"/>
<path d="M387.225 74H382.186V9.5H387.225V74ZM418.509 74.8398C414.646 74.8398 411.146 73.888 408.011 71.9844C404.903 70.0807 402.482 67.4352 400.746 64.0479C399.01 60.6325 398.143 56.8112 398.143 52.584V50.7783C398.143 46.4111 398.982 42.4779 400.662 38.9785C402.37 35.4792 404.735 32.7357 407.759 30.748C410.782 28.7324 414.058 27.7246 417.585 27.7246C423.1 27.7246 427.467 29.6143 430.687 33.3936C433.934 37.1449 435.558 42.2819 435.558 48.8047V51.6182H403.14V52.584C403.14 57.735 404.609 62.0322 407.549 65.4756C410.516 68.891 414.24 70.5986 418.719 70.5986C421.406 70.5986 423.772 70.1087 425.815 69.1289C427.887 68.1491 429.763 66.5814 431.442 64.4258L434.592 66.8193C430.896 72.1663 425.535 74.8398 418.509 74.8398ZM417.585 32.0078C413.806 32.0078 410.614 33.3936 408.011 36.165C405.435 38.9365 403.868 42.6598 403.308 47.335H430.561V46.7891C430.421 42.4219 429.175 38.8665 426.823 36.123C424.472 33.3796 421.392 32.0078 417.585 32.0078ZM474.022 74C473.519 72.5723 473.197 70.4587 473.057 67.6592C471.293 69.9548 469.039 71.7324 466.296 72.9922C463.58 74.224 460.697 74.8398 457.646 74.8398C453.278 74.8398 449.737 73.6221 447.021 71.1865C444.334 68.751 442.99 65.6715 442.99 61.9482C442.99 57.5251 444.824 54.0257 448.491 51.4502C452.187 48.8747 457.324 47.5869 463.902 47.5869H473.015V42.4219C473.015 39.1745 472.007 36.627 469.991 34.7793C468.004 32.9036 465.092 31.9658 461.257 31.9658C457.757 31.9658 454.86 32.8617 452.564 34.6533C450.269 36.445 449.121 38.6006 449.121 41.1201L444.082 41.0781C444.082 37.4668 445.762 34.3454 449.121 31.7139C452.48 29.0544 456.61 27.7246 461.509 27.7246C466.576 27.7246 470.565 28.9984 473.477 31.5459C476.416 34.0654 477.928 37.5928 478.012 42.1279V63.6279C478.012 68.0231 478.474 71.3125 479.397 73.4961V74H474.022ZM458.233 70.3887C461.593 70.3887 464.588 69.5768 467.22 67.9531C469.879 66.3294 471.811 64.1598 473.015 61.4443V51.4502H464.028C459.017 51.5062 455.098 52.43 452.271 54.2217C449.443 55.9854 448.029 58.4209 448.029 61.5283C448.029 64.0758 448.967 66.1895 450.843 67.8691C452.746 69.5488 455.21 70.3887 458.233 70.3887ZM512.445 32.8477C511.382 32.6517 510.248 32.5537 509.044 32.5537C505.909 32.5537 503.249 33.4355 501.065 35.1992C498.91 36.9349 497.37 39.4684 496.446 42.7998V74H491.449V28.5645H496.362L496.446 35.7871C499.106 30.4121 503.375 27.7246 509.254 27.7246C510.654 27.7246 511.759 27.9066 512.571 28.2705L512.445 32.8477ZM525.211 28.5645L525.379 36.333C527.087 33.5335 529.214 31.4059 531.762 29.9502C534.309 28.4665 537.123 27.7246 540.202 27.7246C545.073 27.7246 548.699 29.0964 551.078 31.8398C553.458 34.5833 554.661 38.6986 554.689 44.1855V74H549.692V44.1436C549.664 40.0843 548.797 37.0609 547.089 35.0732C545.409 33.0856 542.708 32.0918 538.984 32.0918C535.877 32.0918 533.119 33.0716 530.712 35.0312C528.332 36.9629 526.569 39.5804 525.421 42.8838V74H520.424V28.5645H525.211Z" fill="#FF4400"/>
</svg>
